<svg width="275" height="205" viewBox="0 0 275 205" fill="none" xmlns="http://www.w3.org/2000/svg">
<path d="M148.779 114.102C148.779 119.539 146.346 124.497 142.7 129.89C141.375 131.849 139.952 133.78 138.469 135.794C137.905 136.56 137.332 137.337 136.753 138.133C134.682 140.976 132.577 143.981 130.746 147.191C127.866 152.238 129.267 157.815 130.351 162.129C130.403 162.338 130.455 162.543 130.505 162.746C131.723 167.636 132.493 171.419 130.679 174.976C127.186 181.823 120.963 188.382 113.853 193.232C106.708 198.106 99.0445 201 92.81 201C85.9361 201 78.2211 198.137 71.2565 193.334C64.3095 188.543 58.3755 182.003 54.9641 175.022C53.2804 171.576 54.005 167.878 55.144 162.991C55.1814 162.831 55.2194 162.669 55.2577 162.505C56.284 158.126 57.5878 152.563 54.9473 147.327C52.8917 143.251 49.8573 138.955 46.9516 134.842C45.7306 133.113 44.5323 131.417 43.4389 129.782C39.5218 123.927 36.8408 118.756 36.8408 114.102C36.8408 97.6369 42.1338 87.4598 51.2779 81.2147C60.6722 74.7986 74.6541 72.1525 92.81 72.1525C110.966 72.1525 124.948 74.7986 134.342 81.2147C143.486 87.4598 148.779 97.6369 148.779 114.102Z" stroke="#E30000" stroke-width="6"/>
<path d="M129.535 177.706V177.706C129.184 178.404 128.751 179.058 128.244 179.654L127.745 180.241C124.841 183.655 120.654 185.716 116.178 185.933L112.891 186.093C104.972 186.479 97.4027 182.802 92.81 176.339V176.339M56.08 177.706L56.2447 178.033C56.8367 179.211 57.5879 180.302 58.4772 181.275V181.275C61.0061 184.043 64.5161 185.713 68.2589 185.93L71.824 186.137C78.1635 186.504 84.3757 184.252 89.0069 179.907L92.81 176.339M92.81 162.509L92.81 176.339" stroke="#E30000" stroke-width="6"/>
<path d="M103.867 152.136C103.867 158.838 96.881 165.966 92.81 165.966C88.739 165.966 81.7533 158.838 81.7533 152.136C81.7533 145.433 88.739 148.678 92.81 148.678C96.881 148.678 103.867 145.433 103.867 152.136Z" fill="#E30000"/>
<path d="M3.5306 97.9884L3.5769 97.8677L3.61265 97.7434C5.16036 92.363 11.1751 88.1725 19.0825 86.685C26.886 85.2171 35.231 86.6728 40.3408 91.09C40.4031 91.1488 40.4291 91.1849 40.4366 91.1959C40.4385 91.1987 40.4397 91.2007 40.4405 91.202L40.4409 91.2033C40.4415 91.2054 40.4423 91.209 40.4434 91.2143C40.4455 91.2247 40.4486 91.2432 40.451 91.2717C40.4559 91.3297 40.4577 91.4274 40.4425 91.577C40.3669 92.3233 40.0193 93.3468 39.3395 95.2311L39.3304 95.2563C38.0456 98.8175 36.1695 104.017 36.1695 111.46C36.1695 120.998 39.8406 126.84 42.7134 130.551C43.1334 131.094 43.5863 131.653 43.9703 132.126C44.1824 132.388 44.3735 132.624 44.5263 132.817C44.5789 132.883 44.6286 132.946 44.6754 133.006C36.0787 137.436 29.2703 137.954 23.9485 136.475C18.3811 134.928 13.9363 131.056 10.5476 126.033C7.15509 121.004 4.9486 114.996 3.84072 109.605C3.2886 106.918 3.0213 104.442 3.00123 102.378C2.98058 100.255 3.22432 98.787 3.5306 97.9884ZM45.3883 134.042C45.3882 134.042 45.387 134.039 45.3848 134.033C45.3873 134.039 45.3884 134.042 45.3883 134.042ZM45.8068 132.399C45.8187 132.389 45.8256 132.384 45.8261 132.384C45.8266 132.384 45.8206 132.389 45.8068 132.399Z" stroke="#E30000" stroke-width="6"/>
<path d="M149.446 112.512C149.446 120.31 146.236 125.76 143.971 129.38C143.837 129.595 143.708 129.799 143.586 129.994C143.181 130.638 142.839 131.182 142.543 131.693C142.27 132.165 142.096 132.511 141.989 132.767C150.589 138.349 157.486 139.271 162.924 137.895C168.491 136.487 173.134 132.52 176.804 127.224C180.467 121.938 182.988 115.565 184.362 109.875C185.046 107.038 185.431 104.431 185.543 102.275C185.658 100.044 185.465 98.5616 185.201 97.8181C183.883 94.1068 179.246 90.6979 171.955 89.2528C164.845 87.8435 155.99 88.512 147.639 92.1313C146.791 92.4988 146.274 92.7725 145.962 92.9763C146.02 93.2148 146.123 93.5551 146.296 94.0672C146.374 94.2991 146.46 94.5447 146.55 94.8052C147.63 97.9207 149.446 103.161 149.446 112.512Z" stroke="#E30000" stroke-width="6"/>
<path d="M47.2907 3L137.116 3V46.9923V81.7258V86.8983H92.2032H47.2907L47.2907 81.7258V46.9923V3Z" fill="#E30000" stroke="#E30000" stroke-width="6"/>
<path d="M11.1205 78.4794L29.8971 83.5123C34.5725 84.7655 39.3328 85.6776 44.1404 86.2414L83.4106 90.8466C91.6968 91.8183 100.072 91.7492 108.341 90.641L147.487 85.3946L173.286 78.4794" stroke="#E30000" stroke-width="6" stroke-linecap="round"/>
<path d="M89.1245 117.559C89.1245 127.107 72.9646 129.877 59.6399 131.39C44.4065 133.119 44.8976 123.65 44.8976 114.102C44.8976 104.554 57.6202 107.519 72.9646 107.519C92.81 107.519 89.1245 110.644 89.1245 117.559Z" fill="#E30000"/>
<path d="M96.4957 117.559C96.4957 124.475 110.369 129.723 125.98 131.39C141.238 133.019 140.723 123.65 140.723 114.102C140.723 104.554 128 107.519 112.655 107.519C92.8101 107.186 96.4957 110.644 96.4957 117.559Z" fill="#E30000"/>
<path d="M85.4388 117.559V117.559C90.1099 115.369 95.5133 115.369 100.184 117.559V117.559" stroke="#E30000" stroke-width="6"/>
<path d="M36.9196 117.559V117.559C41.5907 115.369 46.994 115.369 51.6651 117.559V117.559" stroke="#E30000" stroke-width="6"/>
<path d="M132.745 117.559L135.871 116.093C138.561 114.831 141.673 114.831 144.363 116.093L147.49 117.559" stroke="#E30000" stroke-width="6"/>
<path d="M125.538 110.892V110.892C129.843 110.892 133.809 113.226 135.9 116.989L136 117.169" stroke="white" stroke-width="4" stroke-linecap="round"/>
<path d="M74.277 110.892V110.892C78.5816 110.892 82.5479 113.226 84.6384 116.989L84.7385 117.169" stroke="white" stroke-width="4" stroke-linecap="round"/>
<path d="M118.002 10.3727V10.3727C125.536 8.60629 132.748 14.323 132.748 22.0606V24.2032" stroke="white" stroke-width="6" stroke-linecap="round"/>
<path d="M39.392 95.1341L35.5838 92.4461C28.8833 87.7164 19.402 90.7937 16.629 98.5982V98.5982C15.4671 101.868 15.7249 105.452 17.3397 108.482L18.4917 110.644" stroke="#E30000" stroke-width="6" stroke-linecap="round"/>
<path d="M42.8687 128.285V128.285C41.2206 130.58 38.5063 131.872 35.6545 131.719L33.876 131.623C31.0813 131.473 28.4175 130.333 26.3659 128.408L25.859 127.933" stroke="#E30000" stroke-width="6" stroke-linecap="round"/>
<path d="M146.446 95.1619L149.431 93.0377C156.11 88.2857 165.597 91.3455 168.368 99.1454V99.1454C169.526 102.406 169.269 105.98 167.659 109.001L166.5 111.176" stroke="#E30000" stroke-width="6" stroke-linecap="round"/>
<path d="M142.48 128.464V128.464C143.659 130.601 145.91 131.922 148.373 131.922L150.944 131.922C153.834 131.922 156.63 130.812 158.75 128.823L159.133 128.464" stroke="#E30000" stroke-width="6" stroke-linecap="round"/>
<path d="M55.3475 79.5252V79.5252C77.2802 84.0977 99.8589 84.6672 121.994 81.2061L132.745 79.5252" stroke="white" stroke-width="6" stroke-linecap="round"/>
<path fill-rule="evenodd" clip-rule="evenodd" d="M268.357 41.8783C251.335 7.87709 200.054 17.404 197.218 55.366L196.483 65.1984C196.454 65.5928 196.872 65.8637 197.22 65.6753C197.37 65.5943 197.468 65.4427 197.481 65.2729L198.215 55.4405C200.973 18.5344 250.875 9.19328 267.463 42.3259C268.403 44.2041 269.155 46.185 269.696 48.2141L269.996 49.3394C272.333 58.1089 270.368 67.4671 264.701 74.5558L264.453 74.8653C261.057 79.113 256.47 82.2496 251.28 83.8727L248.853 84.6315C246.183 85.4666 243.348 85.6335 240.598 85.1175L238.339 84.6936C229.205 82.9798 223.76 73.5136 226.871 64.7565C229.015 58.7225 234.725 54.6915 241.129 54.6915H244.316C244.593 54.6915 244.816 54.4677 244.816 54.1915C244.816 53.9154 244.593 53.6915 244.316 53.6915H241.129C234.302 53.6915 228.215 57.9889 225.929 64.4217C222.612 73.7575 228.417 83.8494 238.154 85.6765L240.413 86.1003C243.324 86.6465 246.325 86.4699 249.152 85.5859L251.578 84.8271C256.959 83.1445 261.714 79.8931 265.234 75.4897L265.482 75.1802C271.347 67.8436 273.381 58.1581 270.962 49.0819L270.662 47.9566C270.104 45.8614 269.327 43.8168 268.357 41.8783ZM197.561 101.991C197.523 101.637 197.139 101.435 196.826 101.604C196.648 101.701 196.545 101.895 196.567 102.097L197.336 109.318C198.172 117.165 199.929 124.885 202.571 132.321L209.66 152.272L210.245 155.017C214.09 173.053 204.162 191.188 186.896 197.667C182.71 199.238 178.276 200.042 173.806 200.042H171.257C160.688 200.042 150.378 196.778 141.734 190.697L140.812 190.048C140.587 189.889 140.275 189.944 140.116 190.17C139.957 190.395 140.011 190.707 140.237 190.866L141.159 191.515C149.971 197.715 160.482 201.042 171.257 201.042H173.806C178.396 201.042 182.949 200.216 187.247 198.603C204.976 191.95 215.171 173.328 211.223 154.808L210.631 152.031L210.624 151.999L210.613 151.968L203.513 131.986C200.897 124.624 199.158 116.981 198.33 109.212L197.561 101.991Z" fill="#E30000"/>
<path d="M197.218 55.366L200.21 55.5895L197.218 55.366ZM268.357 41.8783L265.674 43.2213L265.674 43.2213L268.357 41.8783ZM198.215 55.4405L195.224 55.217L198.215 55.4405ZM267.463 42.3259L264.78 43.6689L264.78 43.669L267.463 42.3259ZM269.696 48.2141L272.595 47.4416V47.4416L269.696 48.2141ZM269.996 49.3394L267.097 50.1119L267.097 50.1119L269.996 49.3394ZM264.701 74.5558L262.357 72.6825L262.357 72.6825L264.701 74.5558ZM264.453 74.8653L266.796 76.7386L266.796 76.7386L264.453 74.8653ZM251.28 83.8727L252.175 86.736H252.175L251.28 83.8727ZM248.853 84.6315L247.958 81.7682H247.958L248.853 84.6315ZM240.598 85.1175L241.151 82.1689L241.151 82.1689L240.598 85.1175ZM238.339 84.6936L237.785 87.6422H237.785L238.339 84.6936ZM226.871 64.7565L224.045 63.7521L226.871 64.7565ZM225.929 64.4217L228.756 65.4261V65.4261L225.929 64.4217ZM238.154 85.6765L237.601 88.625H237.601L238.154 85.6765ZM240.413 86.1003L240.967 83.1518L240.967 83.1518L240.413 86.1003ZM249.152 85.5859L250.047 88.4492L249.152 85.5859ZM251.578 84.8271L252.473 87.6904L252.474 87.6904L251.578 84.8271ZM265.234 75.4897L262.891 73.6164L262.891 73.6164L265.234 75.4897ZM265.482 75.1802L267.825 77.0535L267.825 77.0535L265.482 75.1802ZM270.962 49.0819L268.063 49.8544V49.8544L270.962 49.0819ZM270.662 47.9566L273.561 47.1841V47.1841L270.662 47.9566ZM197.336 109.318L194.353 109.636L197.336 109.318ZM202.571 132.321L205.398 131.316L202.571 132.321ZM209.66 152.272L212.594 151.646L212.552 151.454L212.486 151.268L209.66 152.272ZM210.245 155.017L213.179 154.391L210.245 155.017ZM186.896 197.667L187.95 200.476L186.896 197.667ZM141.734 190.697L143.46 188.243L143.46 188.243L141.734 190.697ZM141.159 191.515L142.885 189.061L142.885 189.061L141.159 191.515ZM187.247 198.603L188.301 201.412H188.301L187.247 198.603ZM211.223 154.808L208.289 155.434L211.223 154.808ZM210.631 152.031L213.565 151.406L213.565 151.406L210.631 152.031ZM210.624 151.999L213.558 151.374L213.517 151.18L213.451 150.994L210.624 151.999ZM210.613 151.968L207.786 152.973L207.786 152.973L210.613 151.968ZM203.513 131.986L206.34 130.981L203.513 131.986ZM198.33 109.212L201.313 108.894L198.33 109.212ZM196.567 102.097L193.584 102.415L196.567 102.097ZM140.812 190.048L139.086 192.502L140.812 190.048ZM140.237 190.866L141.963 188.413L140.237 190.866ZM197.561 101.991L194.578 102.309L197.561 101.991ZM197.481 65.2729L194.489 65.0494L197.481 65.2729ZM196.483 65.1984L193.492 64.9749L196.483 65.1984ZM200.21 55.5895C202.809 20.7985 249.955 11.8227 265.674 43.2213L271.04 40.5353C252.715 3.93153 197.3 14.0094 194.226 55.1425L200.21 55.5895ZM199.475 65.4219L200.21 55.5895L194.226 55.1425L193.492 64.9749L199.475 65.4219ZM195.224 55.217L194.489 65.0494L200.472 65.4964L201.207 55.6641L195.224 55.217ZM270.145 40.9829C252.252 5.24164 198.217 15.1466 195.224 55.217L201.207 55.6641C203.728 21.9222 249.499 13.1449 264.78 43.6689L270.145 40.9829ZM272.595 47.4416C272.001 45.2142 271.176 43.0423 270.145 40.9829L264.78 43.669C265.63 45.3659 266.309 47.1557 266.797 48.9866L272.595 47.4416ZM272.895 48.5669L272.595 47.4416L266.797 48.9866L267.097 50.1119L272.895 48.5669ZM267.044 76.4291C273.305 68.5966 275.477 58.2565 272.895 48.5669L267.097 50.1119C269.189 57.9613 267.43 66.3375 262.357 72.6825L267.044 76.4291ZM266.796 76.7386L267.044 76.429L262.357 72.6825L262.11 72.9921L266.796 76.7386ZM252.175 86.736C257.936 84.9344 263.027 81.4532 266.796 76.7386L262.11 72.992C259.087 76.7729 255.004 79.5647 250.384 81.0094L252.175 86.736ZM249.749 87.4948L252.175 86.736L250.384 81.0094L247.958 81.7682L249.749 87.4948ZM240.045 88.066C243.277 88.6726 246.609 88.4764 249.749 87.4948L247.958 81.7682C245.756 82.4568 243.419 82.5944 241.151 82.1689L240.045 88.066ZM237.785 87.6422L240.045 88.066L241.151 82.1689L238.892 81.7451L237.785 87.6422ZM224.045 63.7521C220.316 74.2455 226.84 85.5885 237.785 87.6422L238.892 81.7451C231.569 80.371 227.204 72.7817 229.698 65.7609L224.045 63.7521ZM241.129 51.6915C233.456 51.6915 226.614 56.5218 224.045 63.7521L229.698 65.7609C231.417 60.9233 235.995 57.6915 241.129 57.6915V51.6915ZM244.316 51.6915H241.129V57.6915H244.316V51.6915ZM241.129 56.6915H244.316V50.6915H241.129V56.6915ZM228.756 65.4261C230.617 60.1897 235.572 56.6915 241.129 56.6915V50.6915C233.033 50.6915 225.813 55.7882 223.102 63.4173L228.756 65.4261ZM238.707 82.7279C230.781 81.2406 226.056 73.0257 228.756 65.4261L223.102 63.4173C219.168 74.4894 226.052 86.4581 237.601 88.625L238.707 82.7279ZM240.967 83.1518L238.707 82.7279L237.601 88.625L239.86 89.0489L240.967 83.1518ZM248.256 82.7226C245.898 83.4601 243.395 83.6074 240.967 83.1518L239.86 89.0489C243.254 89.6856 246.752 89.4797 250.047 88.4492L248.256 82.7226ZM250.683 81.9639L248.256 82.7226L250.047 88.4492L252.473 87.6904L250.683 81.9639ZM262.891 73.6164C259.744 77.5529 255.493 80.4596 250.683 81.9639L252.474 87.6904C258.424 85.8294 263.684 82.2332 267.577 77.363L262.891 73.6164ZM263.138 73.3069L262.891 73.6164L267.577 77.363L267.825 77.0535L263.138 73.3069ZM268.063 49.8544C270.237 58.0105 268.409 66.714 263.138 73.3069L267.825 77.0535C274.285 68.9731 276.525 58.3057 273.861 48.3094L268.063 49.8544ZM267.763 48.7291L268.063 49.8544L273.861 48.3094L273.561 47.1841L267.763 48.7291ZM265.674 43.2213C266.554 44.9786 267.258 46.8321 267.763 48.7291L273.561 47.1841C272.95 44.8906 272.101 42.655 271.04 40.5353L265.674 43.2213ZM200.319 109L199.55 101.779L193.584 102.415L194.353 109.636L200.319 109ZM205.398 131.316C202.835 124.103 201.13 116.613 200.319 109L194.353 109.636C195.214 117.716 197.023 125.668 199.744 133.325L205.398 131.316ZM212.486 151.268L205.398 131.316L199.744 133.325L206.833 153.276L212.486 151.268ZM213.179 154.391L212.594 151.646L206.725 152.897L207.311 155.642L213.179 154.391ZM187.95 200.476C206.606 193.475 217.333 173.879 213.179 154.391L207.311 155.642C210.846 172.226 201.717 188.901 185.842 194.858L187.95 200.476ZM173.806 203.042C178.636 203.042 183.427 202.173 187.95 200.476L185.842 194.858C181.993 196.303 177.916 197.042 173.806 197.042V203.042ZM171.257 203.042H173.806V197.042H171.257V203.042ZM140.008 193.15C149.157 199.588 160.07 203.042 171.257 203.042V197.042C161.306 197.042 151.598 193.969 143.46 188.243L140.008 193.15ZM139.086 192.502L140.008 193.15L143.46 188.243L142.539 187.595L139.086 192.502ZM142.885 189.061L141.963 188.413L138.511 193.32L139.432 193.968L142.885 189.061ZM171.257 198.042C161.1 198.042 151.192 194.906 142.885 189.061L139.432 193.968C148.75 200.524 159.864 204.042 171.257 204.042V198.042ZM173.806 198.042H171.257V204.042H173.806V198.042ZM186.193 195.795C182.232 197.281 178.036 198.042 173.806 198.042V204.042C178.756 204.042 183.666 203.151 188.301 201.412L186.193 195.795ZM208.289 155.434C211.927 172.501 202.532 189.663 186.193 195.795L188.301 201.412C207.421 194.237 218.415 174.155 214.157 154.183L208.289 155.434ZM207.697 152.657L208.289 155.434L214.157 154.183L213.565 151.406L207.697 152.657ZM207.69 152.625L207.697 152.657L213.565 151.406L213.558 151.374L207.69 152.625ZM207.786 152.973L207.797 153.004L213.451 150.994L213.44 150.964L207.786 152.973ZM200.686 132.99L207.786 152.973L213.44 150.964L206.34 130.981L200.686 132.99ZM195.347 109.53C196.2 117.533 197.992 125.407 200.686 132.99L206.34 130.981C203.803 123.842 202.116 116.429 201.313 108.894L195.347 109.53ZM194.578 102.309L195.347 109.53L201.313 108.894L200.544 101.673L194.578 102.309ZM195.397 98.9664C194.15 99.6421 193.433 101.004 193.584 102.415L199.55 101.779C199.657 102.787 199.146 103.76 198.255 104.242L195.397 98.9664ZM142.539 187.595C140.958 186.482 138.775 186.862 137.662 188.443L142.569 191.896C141.775 193.025 140.215 193.296 139.086 192.502L142.539 187.595ZM244.316 57.6915C246.249 57.6915 247.816 56.1245 247.816 54.1915H241.816C241.816 52.8108 242.936 51.6915 244.316 51.6915V57.6915ZM137.662 188.443C136.55 190.024 136.93 192.207 138.511 193.32L141.963 188.413C143.093 189.207 143.364 190.767 142.569 191.896L137.662 188.443ZM247.816 54.1915C247.816 52.2585 246.249 50.6915 244.316 50.6915V56.6915C242.936 56.6915 241.816 55.5722 241.816 54.1915H247.816ZM198.255 104.242C196.69 105.09 194.766 104.078 194.578 102.309L200.544 101.673C200.28 99.1965 197.587 97.7802 195.397 98.9664L198.255 104.242ZM198.649 68.3132C199.696 67.7458 200.383 66.6845 200.472 65.4964L194.489 65.0494C194.552 64.2008 195.043 63.4427 195.791 63.0374L198.649 68.3132ZM193.492 64.9749C193.285 67.7357 196.215 69.6318 198.649 68.3132L195.791 63.0374C197.53 62.0956 199.622 63.4499 199.475 65.4219L193.492 64.9749Z" fill="#E30000"/>
</svg>
